/* XPM */
static char *wall_west[] = {
/* columns rows colors chars-per-pixel */
"64 64 231 2 ",
"   c #35211D",
".  c #392622",
"X  c #4D3937",
"o  c #533A36",
"O  c #643E35",
"+  c #5E413C",
"@  c #664239",
"#  c #71483E",
"$  c #5C4643",
"%  c #5F4F52",
"&  c #684B48",
"*  c #704F46",
"=  c #79554D",
"-  c #6A585A",
";  c #765A59",
":  c #685960",
">  c #695D66",
",  c #765E62",
"<  c #796668",
"1  c #796A73",
"2  c #855A57",
"3  c #915C50",
"4  c #9D624E",
"5  c #8A645B",
"6  c #98665B",
"7  c #A76C56",
"8  c #A76C5C",
"9  c #B66D56",
"0  c #BA735B",
"q  c #896967",
"w  c #996863",
"e  c #9B6D62",
"r  c #99746A",
"t  c #9B756D",
"y  c #836E75",
"u  c #897576",
"i  c #987976",
"p  c #A36D63",
"a  c #A66E66",
"s  c #A57567",
"d  c #AC7364",
"f  c #AB756B",
"g  c #AC7B6C",
"h  c #B37564",
"j  c #B37A65",
"k  c #BB7964",
"l  c #B47B6B",
"z  c #BB7D6B",
"x  c #A47B73",
"c  c #AB7C73",
"v  c #B37D73",
"b  c #B97D71",
"n  c #C4765A",
"m  c #CB7B5D",
"M  c #C47B63",
"N  c #CB7E63",
"B  c #C27E6A",
"V  c #D07F61",
"C  c #9B847D",
"Z  c #B6806C",
"A  c #A4837C",
"S  c #AB8679",
"D  c #AC847B",
"F  c #B48374",
"G  c #B98977",
"H  c #B3847A",
"J  c #BB847A",
"K  c #B5897B",
"L  c #BC8B7B",
"P  c #BF907D",
"I  c #C58067",
"U  c #CD8166",
"Y  c #C3826D",
"T  c #CB846C",
"R  c #D48364",
"E  c #D88665",
"W  c #D48669",
"Q  c #D5896D",
"!  c #DC8C6C",
"~  c #C38572",
"^  c #C98672",
"/  c #C48977",
"(  c #CC8A74",
")  c #C48C7B",
"_  c #CB8D7A",
"`  c #D28C74",
"'  c #D98E72",
"]  c #D18E7A",
"[  c #C3907E",
"{  c #CD917C",
"}  c #DC9175",
"|  c #D59279",
" . c #D4927C",
".. c #DB957B",
"X. c #DD987F",
"o. c #E08F6D",
"O. c #E4997B",
"+. c #E5997B",
"@. c #917C81",
"#. c #9A8686",
"$. c #988F8E",
"%. c #A68885",
"&. c #AD8B84",
"*. c #AB8C8C",
"=. c #B58983",
"-. c #B48B83",
";. c #BC8D82",
":. c #B38E89",
">. c #AB9286",
",. c #AB938B",
"<. c #BB9284",
"1. c #B4938B",
"2. c #BB948B",
"3. c #B8978B",
"4. c #A48E92",
"5. c #AD9293",
"6. c #A99A95",
"7. c #B79794",
"8. c #B39B93",
"9. c #BC9A93",
"0. c #ACA29D",
"q. c #B4A39B",
"w. c #BAA399",
"e. c #B7A9A4",
"r. c #BCABA4",
"t. c #BDB2AB",
"y. c #B3B1B2",
"u. c #C98E81",
"i. c #C49484",
"p. c #CC9483",
"a. c #C89788",
"s. c #C49A8D",
"d. c #CB9B8C",
"f. c #D39682",
"g. c #D39687",
"h. c #DC9B83",
"j. c #D39C8B",
"k. c #DC9E8A",
"l. c #CB9D91",
"z. c #C29E99",
"x. c #D39E91",
"c. c #E19D84",
"v. c #CDA08E",
"b. c #D4A18E",
"n. c #DCA18D",
"m. c #C4A295",
"M. c #CBA394",
"N. c #C5A49B",
"B. c #CCA49B",
"V. c #C5A99C",
"C. c #CCAA9C",
"Z. c #D4A493",
"A. c #DBA995",
"S. c #D5A798",
"D. c #DBAC9B",
"F. c #D7B09E",
"G. c #DDB09E",
"H. c #E8A388",
"J. c #E3AA94",
"K. c #E7AA94",
"L. c #E2AD9B",
"P. c #E4B29D",
"I. c #EBB39C",
"U. c #C3ABA3",
"Y. c #C7AAA5",
"T. c #CBACA3",
"R. c #D3ADA3",
"E. c #DAADA2",
"W. c #C8B1A7",
"Q. c #C5B3AB",
"!. c #CBB4AB",
"~. c #CCB9AD",
"^. c #D5B2A5",
"/. c #DCB3A4",
"(. c #D3B5AB",
"). c #DAB5AA",
"_. c #D4B9AD",
"`. c #DCBAAC",
"'. c #C6BBB6",
"]. c #CCBCB4",
"[. c #D4BCB2",
"{. c #D5BCB6",
"}. c #DBBDB3",
"|. c #E0AEA0",
" X c #E2B3A3",
".X c #E7B7A6",
"XX c #E5BBAC",
"oX c #F2BBA3",
"OX c #E7BDB1",
"+X c #CBC0B9",
"@X c #CCC2BC",
"#X c #DBC1B5",
"$X c #D5C3B9",
"%X c #D3C4BB",
"&X c #DCC4BB",
"*X c #DDC9BD",
"=X c #F5C1AA",
"-X c #E3C2B5",
";X c #EFC4B2",
":X c #EBC4B4",
">X c #EEC8B7",
",X c #E2C5BA",
"<X c #ECC5BA",
"1X c #E4C9BD",
"2X c #EACBBC",
"3X c #F5C8B9",
"4X c #BFBEC0",
"5X c #CCC8C4",
"6X c #D4CAC3",
"7X c #D6CAC5",
"8X c #DBCCC3",
"9X c #D6D2CC",
"0X c #DCD3CB",
"qX c #DDD9D3",
"wX c #DAD8D4",
"eX c #E4CEC3",
"rX c #EACDC2",
"tX c #F6CEC2",
"yX c #EBD2C5",
"uX c #E7D5CB",
"iX c #E3D4CC",
"pX c #F6D4C8",
"aX c #E3D8D2",
"sX c #EBDCD4",
"dX c #E4DEDA",
"fX c #F2DDD3",
"gX c #ECE0D7",
"hX c #E5E1DC",
"jX c #F0E3DB",
"kX c #E9E8E3",
"lX c #F3EEE5",
/* pixels */
"Z.Z.j.d.Z.n.A.f.f.7X2.H A t ;.d.p.j.k...` c.H.H.K.L.K.h.f.*XT Q } ` ` ` ( ....XXf.K. XL.H.I.H.c.H.H.H.+.H.k.K.L.A.A.R.) f.p.j.j.",
"8.8.%.%.A t t s m.kXe.t.5Xy.>.A A >.2.2.2.2.a.a.i.L F J 2.7XZ 7 7 4 4 3 3 4 7 ^. .h.h.~ Y ( U T  . .' ` c.h.H.H.H.K.M.7 ~ _ f.j.",
"!.(._.}.[.!.!._.,X1X].].7X0XqXqX7X7XaXsXaXiXiXaXhXqX7X0X0XaX%Xr.6.$.$.4.6.0.t.0XC.m.m.W.2.>.C.^.m.B.C.C.C.C.z.a.a.N.%XD x K H H ",
"u.J J b h d p p l b b v J a.].7X) ~ _ ) _ J l J ^.*X/.`.:X:XXXXX).(.`.).T.!.}.yXyXyX1X*XaX!.d.b.D.A.A.G./.`.qX0X&X*XeX1X[.%X%X@X",
"J b d d d d 4 6 p f v f J J w.S.Y h h p f d 8 8 a.V.d.A.P.S.S.Z.A.j.Z.x.a.-.;.M.M./.b.L [.H 4 9 Q U ` X...h.*Xj...} ` ` Q Q ` h ",
"p p p b d p 6 f u.J J f f v U.b.B d d 6 6 s d g w.Q.M.S.G.D.j.n.K.A.j.x.A.A.D.^.V.Z.i.F _.x 6 z T T ( ( ( f.&X .W W ' } ' ! } 9 ",
"p f J p.p w v u.S.l.a.J J J !.p.h s p 2 6 g F w.'.~.M.F./.|.A.k.k.k.A.D.D.A.L.:XXXS.d.L [.D d Y I T ( _ Y p.7X_ N n N ' Q W ! 9 ",
"v p J ;.x J p.g.l.l.f.u.u.f ].p.h d 6 2 s F D 8.t.W.a./.XXOXA.L.I.K.L.|.E.A.Z.:X.XD.Z.a.#Xi.J ^ `  .( ~ Y [ 7X/ Q ! ' T U ' } m ",
"6 4 s c w s s w t c s w x 8.qXF 4 8 8 6 8 8 6 w w.Q.D 2.v.a.;.L u.) ) L ) J K a.L F F 2.#X{ T (  .h.` ` T L 7XJ h.c.c.H.+.! ! R ",
"Q.r.].7X@X@XQ.C 8.7X7X0XqXkXlX0X].~.w.q.Q.Q.w.r.7XaXt.t.Q.8.q.q.,.>.8.q.w.U.r.q.8.>.>.q.0X2.D D D D F K L W.qXA K L Z Z ~ / { ) ",
"`.`.(.rXrXrX-X(.aX2X XP.L..X=X X.X.XI. XI.P.P.P.K.f.i.%XhX,X1X&X/..X X:X:X:XyXyX2X:X-X2X2X2X1XeX,X}.#X,X#X,XeX&X~.7X%X].%X7X7X7X",
") F ) Z.Z.D.D.a.[.n.+.+.+.H.H.H.c.+.+.H.+.+.o.o.E m 9 F !.{ c.k.k.H.H.H.+.+.n.A.c.` ( h.f.h.H.n.h.H.h.h.h.c.H. .( G.,.T.T.9.7.D ",
"g c i.d.M.M.A.d.R...+.+.+.+.+...' ' } +.o.! ! ! R m n ~ [.(  .H.K.H.+.} } +.n.p.( z Y  .( ` ....h.H.H...X.c...T T D.1.R.R.).z.-.",
"F i.D.S.S.D.D.i.C...+.! ! +.' ' Q Q W Q R m n m R m n ( }._ _ h.H...! ! ! +.f.) { { Z Y T  .( T h.K.K.c.h.` Q B z  XT.R.R.R.t q ",
"b.D..XD.D./.A.L 1.` } ! m R ! ! ! ! R R m m m V R m n Y #X) p.(  .} +.+.+.+.H.Z.n.n. .f.` T M z h.H.K.H.h.X. .z B  X].T.B.z.&.9.",
"n. X XD.D.S.Z.F 2.} W R m R R R E o.! m n n m m n n m ` #Xl ( ~ Q ! ! o.+.!  .a.h.h.h.h.h.` T T ..h.K.I.H.h... ... X].T.(.U.T.T.",
"K D D K D x D 5 w.J j d j z 7 4 4 j j d 7 d Z Z l d Z i.aXV.~ Y Y z 0 j 0 4 H L Z { p.p.{ ( Z j Z J f.b.{ _ { ( ` D.Q.8.1.%.%.A ",
"&X#X[._._.N.W.,.%X*X*X*X*X%XQ.r.].7X0X0X8X0XiXeX8X0X7X7XgXgX1X&X*X*X*X7X7X%X7X~.W._.#X%X].].].7X0XaXiXiX0X0X7X7X%XiXhXqX9X'.'.].",
"^ ` ` T Y Y  .f.n.k.A..XOXT.t.Q.N.T.^.S.S.`.C.i.8._.S.Z.A.k. .` c.K.k.h.k.n.k.A.A.j.p.XX[.J J Z.l.) p.j.j.iX7X-XXXXX/.S.j.j.p.) ",
"] T N M 0 k ^ ` ..T ^ A..Xa.4.w.9.N.C.B.M.M.-.D >.C.S.Z. .T m R Q ' M 9 N ! ` f.p.J i.Z.S.b / p.u.h 0 k z M.R.p.f.n.j.f.T U T z ",
"~ Y n 0 B Y ( h.c.` Y A. Xd.8.N.9.9.z.z.z.2.2.d.A v.b.A._ 9 9 V Q ' T n m U  .j.p.L L z.S.z u.f.p.J 7 0 k i.a.) { f.) / B N ( ~ ",
"^ ~ _ _ h.{  .H.H.H.h.L. XZ.U.U.9.7.:.1.2.2.K F 5 i.a.Z.f.0 0 V ! ' W N m n ( p.u.{ u.M./.^ u.k.A.) l z ~ u.H J J J l J z z (  .",
"] ] f.f.k.f.( ..+.X.H.K.L.j.U.z.2.2.-.2.-.D L F 2 L d.D.A.] U R Q ..W N N N ( u.p._ ) /.-X( _ A.A.f.p.f.p.L F ~ J v F L L f.h.f.",
"l l l j J ~ J ( Y ~ / z J J ~.9.&.t t t t 6 w 6 A 2.i.d.d.f.( n n n n 0 0 N ~ ) ~ z z z.T.j J ) / ~ z ) / m.;./ L F v x c L ) i.",
"'.@X7X0X0X0XiX0X@X@X'.q.t.7XkXhXqX0X9X7X7X@X5X7XhXhX*X~.[.~.w.1.2.m.m.T.V.V.W.U.w.8.q.@XqXt.e.8.,.,.,.8.8.0X].Q.~.@X%X7X5X0X0X7X",
"@X&X(.`.}.T.(.}.!.(.r.'.eXrX>X.XXX.X.X.XXX X X XXX X.X.X:XOX-XaX#X`.,X,X#X-X#X}.&XqXaXsXfXsXsXeXeXeXsXyX2XyXyXrX2X:X:X2XiX^.`.}.",
"q.B.z.a.-.D a.N.9.2.w 8.L.c.c.W Q ..+.} } } +.h.h.c...Q Q ` { w.g ) [ G J g g F L !.S.j.) ^ ` ` ` ` W R Q } X...' R ! ( W.i.J H ",
"C 2.2.:.D i *.,.*.-.t 8. X..W n m Q } Q Q ' ..+.} } W n M ] { W.D K F p s 6 6 g F W.j.Y n m R R Q ! R R } +.+.+.o.Q Q ..C.L x t ",
"5 &.1.2.&.A A %.*.1.w 8.).p.T N n m Q ' Q  ...+.+.+.! U M z ~ !.K c g j l d d g -.%Xj.T ! ! ! ! +.R R ! +.+.+.+.+.+.! T B.H c t ",
"2 &.&.:.%.:.1.7.7.z.x r._.j. .' U U W Q U W ! ! +.o.! R T Y l T.D g J ) ) z g z D '.j...! ! o.o.+.! ! +.+.+.H.+.+.+.Q z C.u.u.J ",
"A ,.x D t D -.2.M.l.H ].R.f. .T m m U R W R R R E R R N M T ( [.F f H 2.a.i.J J -.7Xj...! o.+.+.o.+.+.+.o.+.+.+.+.! ` ) Q.i.p.p.",
"7Xe.< t A C &.9.9.2.8.0X2.G F g z j j j Z Z G P G d F L 2.2.m.7X2.D >.,.#.i t t #.9XM.p./ (  . .f.{ a.Z.v.d.L i.M.M.T.9XdXT.2.T.",
"iXeX].w.7X0XaXiXiXiXgXjXeX*X%X0X&X7XeX!.#X}.1X1X_.q.0XaXiXiXeXfXyXeX-X-X#X[.}.`.`.-X}.#X%X%X_._.(.(.`.#X#XeX0Xe.W.[.#X,XrX2X-X2X",
"b./.S.D.S.M.l.Z.A.A.L. XP.A.a.7X XL.A.j.f.f.f._ ) 7X-XP.P.P.I. X XP.P.A.M.C.D.P.D.A.A.v.2.2.L d.2.2.) i.i.M.0XA P v.D./.:X:XXX/.",
"v./.Z.S.S.a.M.j.d.d.d.D.b.f.Z.&Xj.j.p.i.z Z ~ ^ ) 0X`.A.K.A.A.G.A.Z.G.P.D.G.S.v.M.d.d.a.>.%.t a.2.D -.i.P M.7X1.i.d.S.`.OX-X`.^.",
"M.S.S.S.Z.d.S.A. X X/.G.b.f.D.&Xp.d.i.;.d z z l L iX`.Z.D.d.Z.d.a.M.S. XD.G.G.S.M.-.L K 6.U.1.a.a.&.K ;.;.z.7X2.v.Z.S.R.).`.).^.",
"v.D.D.D.Z.b.D.j.Z. X/.G.f.{ S.,Xp.p.L g v J z f D 9X}./.Z.a.d.L d.S./.XX XD.D./.S.l.2.D 6.w.-.M.S.a.2.a.2.z.%Xz.Z.S./.).}.).).`.",
"d.A.P.P.P.D.A.A.A. XP.D.j.j.G.1Xd.D.a.H s s d s t 7X_.z.i.i.i.d.Z.Z.G./.S.D.M.S.S.v.L i 0.!.2.K D L i.i.K 1.%Xm.b.G./.m.B.`.(.`.",
"L ) J [ A.S.Z.Z.Z.d.2.a.Z.Z.S.eX(.B.1.x t t t t %.qXU.A D K K H -.&.,.w.8.e.t.r.r.Q.t.0.9X'.8.r.0.C >.q.'.5XqXw.m.W.W.q.r.Q.@X7X",
"%.>.2.V.%X~.W.~.!.8.w.%XiX7XaXlXhX5X5X@X7X0XaXqXaXkXgX7X7X'.%X[.].%X7X7X7XiXsXkXkXdXaXsXgXgXsXiXiX%X7XiXsXgXgXsX0XhXeXrX2X2X2X2X",
"&X#X#X}.}.(.(.(.(.9.r.iX-XXXXXXXXX/.D.Z.D.L.A.L..X1X/.L.L.T.D.n.p.f.k.j.k.n.k.,X(.a.D./.).).D.Z.i.G a.Z.d.D.G.a.2.(.f...{  .] _ ",
"/.S.m.S.B.2.a.l.;.s w.D./ h M ^ f._ h p z ~ ^ ..K.d.L f.L.}.L.X.` (  .Y ] H.h.-XM.[ A.v.v.S.b.i.J L d.i.) a.[ x i U.k.` Y T `  .",
"`./.C.S.C.2.S.B.a.t m. X( 0 M B z z h 7 7 l ( .. .p.J ~ /.&Xj.( T Y ^ z ] h. .#Xa.p.A.a.a.d.d.[ F L i.K F L l %.#.N.H.H.h.....h.",
"-X).C.S.S.R./.C.N.t U. X` M ( ` T ^ z k 0 Y  . ._ ~ ^ ( j.7XD 7 7 7 d L _  .k.1Xm.d.Z.a.P G G F F K i.P g g s D 2.C.K.H.h.H.c.c.",
"}.^.N.2.2.m.R.).R.x 1.L.{ N ` } h...( M Y ( .. . . .] ` _ 7X&.p 7 d J  .]  ._ &X8.l.i.H g x Z s g c s x s 6 s z.C.B.h.H.H.h.` ` ",
"T.N.2.&.-.;.a.M.B.%.w. .Y M U T f. .T Y ^ ( { { { ) ~ ~ L 0XM.z h z J ~ ~ Z J 7X8.A t i C #.8.q.t.t.'.t.8.6.6.e.@X0XM.M.(.!.U.U.",
"7XQ.e.r.@X%X~.~.].@XhX[.C.m.m.U.Q.!.Q.r.t.Q.].@X@Xt.'.'.9XkX9X[.!.e.Q.@X@X7X0XkXhXqXqX9X9X0X0XaXkXkXgXsXsXkX9X9XaXiX&X}.[.eXeX,X",
"gXsXsXsXsXsXsXiXiXiXsXsXsXaXqXQ.!.[.[.[.}.<X:XOXdXdX&X}.,X,XT.9.N.B.T.}.1X-X}.`.`.`.}.0XK.K.K.K.P.A.j.h.K.%X*.J L J v p p f b b ",
"Z.v.d.l.2.z.E./.S.Z.E. X.X,X9X-.F c v f.j.k.k.f.&X8Xx.d.Z.Z.x 6 6 w 6 6 L b.A.j.j.b.d.8Xf... .h._ l l ~ h.*XD d f w w w p 6 2 2 ",
"H -.<.<.x &.z.).B.z.E. X|.&XiX;.J c s x v v p p !.&Xd.g.b.A.i.d 3 2 2 = w a.n.k.n.A.d.7Xi.J l J F s s Z ) 7X-.6 w f w w 6 w 2 2 ",
"t <.2.-.-.-.s.R.T.z.E.A.D.}.7XJ c p w x D J p p !.&Xf.p.j.A.b.F 3 2 2 = t a.n.K.A.A.d.0Xa. ._ ~ J J J ( p.0X-.s c c x c w w p v ",
"t H v c -.a.2.z.z.2.a.l.l.).7XD c v c c c s w x qX&Xl.d.j.A.A.Z.l w w s i.i.j.I.K.A.Z.qXd.h.H.H.h.f.n.H.H.sXB.) J p.Z.d.f.u.f.A.",
"t f v J J i.;.;.a.l.d.d.x.).7Xz.l.u.) u.u.;.-.U.dX7XS.S.S.D./. XA.u.u.A.S.S.S./.M.M.T.hXS.D.L.P..XXX.X.X XgX%X2.M.(.1XsXeX,X,XeX",
"l.a.a.a.M.S.^.^.(.`.-X-X}.*X0X[.`.).}.-X).}.aXkXkXhX0X0X0XaXaXaXiXiX7XiXaXaXhXhXqXqXqXkXqXaXsXsXsXkXkXgXgXkXkXdXdXgXgXkXaXiXiX9X",
"aXdXdXdXgXgXaXaXaXaXaXdXaX0XaXgXsXsXsXgXsXfXsXsXsXjXgXfXsXkXsXsXsXpXiXyXfXfXfXjXsXpXtXpXfXpXpXpXpXfX}.<XtXtXpXfXpXtXtXpX).B.,X,X",
"D.S.R.E. X X:X`.sXtXtXpXpXpXpXpXtX:XR.fXtXpXtXtXpXpXtXpXtXjX3X:X:X:X3X3X3X3X3XpX<X3X3X3XpXpXtX<X3X3Xd.x.3X:X<X<X3X<X3X3X XH B.OX",
"K.K..X.XoX=XI.A.OXOXOX<X3X<XOX<X:Xd.N.,X:X3X3X3XtXtXtX<X).sXOX X:X:XOX.X.X X X/.}.XX:X X X/.B.z.B.S.-.H E.).).R.R.R. X XB.2.z.OX",
"I.I.I.=X=X=X>X}.2.%.@.#.%.#.7.[.,X7.0X[. XXXE.E.}.eX}.E.z.iX*.&.a.a.D x H c t &.iX/.B.7.:.&.i %.:.-.9.2.-.a.-.%.x @.7.7.5.7X9.R.",
"oXoXoXoX=X3XfX'.t t > > > > 1 %.r.U.hXU.<.D x D 2.B.z.2.z.7Xi q q < - - , t q #.dXU.*.u %.*.1.:.:.a.[.[.*.%.t t u y #.%.%.9XQ.].",
"=X3X=X:XpX:X`.].c H i y > > 1 1 i 6.qXU.a.%.t -.%.-.2.:.9.0X2.J c q , , < t q 4.qXe.*.5.9.7.9.2.2.M.#X'.%.*.%.i i #.5.*.5.5Xy.y.",
"I.oXoX X.Xb.V.7X-.u.D i u 1 1 y y #.9XT.s.z.2.<.2.2.2.7.z.9X1.L D x D x x x t 8.qX8.7.9.z.9.z.z.z.M.[.y.@.5.7.*.5.8.4.#.5.4.u y.",
"_ _ ) J F s r.'.-.a.:.*.7.#.4.*.u 4.4X9.z.7.2.2.7.*.:.*.7.@X*.-.2.-.;.i.2.D i i $.D x D D D D D K H t < @.*.%.i u u @.i #.- $ < ",
"f.f.) J J v q y i i %.7.%.y y #.@.1 < < y 1 1 , 1 < < < < 1 ; t q * = = = = - $ - - $ o o o X o & * + o $ $ $ $ & & $.u #.u ; * ",
"s t x s 6 5 o $ - - < - - - % - - & ; , , > < & * O O * O O + 1 X .   . . X - - #.< & @ @ # # = 2 q 2 q 2 5 q q 5 t y.e.q.8.A i "
};
