/* XPM */
static char *wall_north_xpm[] = {
"64 64 4 1",
" 	c #CCCCCC",  /* Gris claro */
".	c #999999",  /* Gris medio */
"X	c #666666",  /* Gris oscuro */
"o	c #333333",  /* Gris muy oscuro */
"ooooXXXXXXXXooooXXXXXXXXooooXXXXXXXXooooXXXXXXXXooooXXXXXXXXoooo",
"o              o              o              o              o   ",
"X              X              X              X              X   ",
"X              X              X              X              X   ",
"X              X              X              X              X   ",
"X              X              X              X              X   ",
"X              X              X              X              X   ",
"X              X              X              X              X   ",
"ooooXXXXXXXXooooXXXXXXXXooooXXXXXXXXooooXXXXXXXXooooXXXXXXXXoooo",
"o              o              o              o              o   ",
"X              X              X              X              X   ",
"X              X              X              X              X   ",
"X              X              X              X              X   ",
"X              X              X              X              X   ",
"X              X              X              X              X   ",
"X              X              X              X              X   ",
"ooooXXXXXXXXooooXXXXXXXXooooXXXXXXXXooooXXXXXXXXooooXXXXXXXXoooo",
"o              o              o              o              o   ",
"X              X              X              X              X   ",
"X              X              X              X              X   ",
"X              X              X              X              X   ",
"X              X              X              X              X   ",
"X              X              X              X              X   ",
"X              X              X              X              X   ",
"ooooXXXXXXXXooooXXXXXXXXooooXXXXXXXXooooXXXXXXXXooooXXXXXXXXoooo",
"o              o              o              o              o   ",
"X              X              X              X              X   ",
"X              X              X              X              X   ",
"X              X              X              X              X   ",
"X              X              X              X              X   ",
"X              X              X              X              X   ",
"X              X              X              X              X   ",
"ooooXXXXXXXXooooXXXXXXXXooooXXXXXXXXooooXXXXXXXXooooXXXXXXXXoooo",
"o              o              o              o              o   ",
"X              X              X              X              X   ",
"X              X              X              X              X   ",
"X              X              X              X              X   ",
"X              X              X              X              X   ",
"X              X              X              X              X   ",
"X              X              X              X              X   ",
"ooooXXXXXXXXooooXXXXXXXXooooXXXXXXXXooooXXXXXXXXooooXXXXXXXXoooo",
"o              o              o              o              o   ",
"X              X              X              X              X   ",
"X              X              X              X              X   ",
"X              X              X              X              X   ",
"X              X              X              X              X   ",
"X              X              X              X              X   ",
"X              X              X              X              X   ",
"ooooXXXXXXXXooooXXXXXXXXooooXXXXXXXXooooXXXXXXXXooooXXXXXXXXoooo",
"o              o              o              o              o   ",
"X              X              X              X              X   ",
"X              X              X              X              X   ",
"X              X              X              X              X   ",
"X              X              X              X              X   ",
"X              X              X              X              X   ",
"X              X              X              X              X   ",
"ooooXXXXXXXXooooXXXXXXXXooooXXXXXXXXooooXXXXXXXXooooXXXXXXXXoooo",
"o              o              o              o              o   ",
"X              X              X              X              X   ",
"X              X              X              X              X   ",
"X              X              X              X              X   ",
"X              X              X              X              X   ",
"X              X              X              X              X   ",
"X              X              X              X              X   "
};